<svg xmlns="http://www.w3.org/2000/svg" width="900" height="560" viewBox="0 0 900 560" role="img" aria-label="Budget curve for step_by_step_experiment_4">
  <rect width="100%" height="100%" fill="#fcfcfd" />
  <text x="90" y="32" font-size="24" font-weight="700" fill="#111827">step_by_step_experiment_4</text>
  <text x="90" y="54" font-size="14" fill="#4b5563">Solved 21/22 problems | final budget ceiling $0.25</text>
  <line x1="90.00" y1="70" x2="90.00" y2="480" stroke="#e5e7eb" stroke-width="1" /><line x1="350.00" y1="70" x2="350.00" y2="480" stroke="#e5e7eb" stroke-width="1" /><line x1="610.00" y1="70" x2="610.00" y2="480" stroke="#e5e7eb" stroke-width="1" /><line x1="870.00" y1="70" x2="870.00" y2="480" stroke="#e5e7eb" stroke-width="1" /><line x1="90" y1="480.00" x2="870" y2="480.00" stroke="#e5e7eb" stroke-width="1" /><line x1="90" y1="424.09" x2="870" y2="424.09" stroke="#e5e7eb" stroke-width="1" /><line x1="90" y1="368.18" x2="870" y2="368.18" stroke="#e5e7eb" stroke-width="1" /><line x1="90" y1="312.27" x2="870" y2="312.27" stroke="#e5e7eb" stroke-width="1" /><line x1="90" y1="256.36" x2="870" y2="256.36" stroke="#e5e7eb" stroke-width="1" /><line x1="90" y1="200.45" x2="870" y2="200.45" stroke="#e5e7eb" stroke-width="1" /><line x1="90" y1="144.55" x2="870" y2="144.55" stroke="#e5e7eb" stroke-width="1" /><line x1="90" y1="88.64" x2="870" y2="88.64" stroke="#e5e7eb" stroke-width="1" /><line x1="90" y1="70.00" x2="870" y2="70.00" stroke="#e5e7eb" stroke-width="1" />
  <line x1="90" y1="70" x2="90" y2="480" stroke="#111827" stroke-width="1.5" />
  <line x1="90" y1="480" x2="870" y2="480" stroke="#111827" stroke-width="1.5" />
  <path d="M 90.00 480.00 L 110.67 480.00 L 110.67 461.36 L 118.75 461.36 L 118.75 442.73 L 129.28 442.73 L 129.28 424.09 L 139.66 424.09 L 139.66 405.45 L 140.01 405.45 L 140.01 386.82 L 143.88 386.82 L 143.88 368.18 L 150.22 368.18 L 150.22 349.55 L 158.46 349.55 L 158.46 330.91 L 170.98 330.91 L 170.98 312.27 L 178.21 312.27 L 178.21 293.64 L 188.10 293.64 L 188.10 275.00 L 217.65 275.00 L 217.65 256.36 L 228.03 256.36 L 228.03 237.73 L 253.35 237.73 L 253.35 219.09 L 271.58 219.09 L 271.58 200.45 L 309.76 200.45 L 309.76 181.82 L 425.46 181.82 L 425.46 163.18 L 429.02 163.18 L 429.02 144.55 L 432.48 144.55 L 432.48 125.91 L 508.59 125.91 L 508.59 107.27 L 606.26 107.27 L 606.26 88.64 L 870.00 88.64" fill="none" stroke="#0f766e" stroke-width="3" stroke-linejoin="round" stroke-linecap="round" />
  <circle cx="110.67" cy="461.36" r="4" fill="#0f766e" stroke="white" stroke-width="1.5" /><circle cx="118.75" cy="442.73" r="4" fill="#0f766e" stroke="white" stroke-width="1.5" /><circle cx="129.28" cy="424.09" r="4" fill="#0f766e" stroke="white" stroke-width="1.5" /><circle cx="139.66" cy="405.45" r="4" fill="#0f766e" stroke="white" stroke-width="1.5" /><circle cx="140.01" cy="386.82" r="4" fill="#0f766e" stroke="white" stroke-width="1.5" /><circle cx="143.88" cy="368.18" r="4" fill="#0f766e" stroke="white" stroke-width="1.5" /><circle cx="150.22" cy="349.55" r="4" fill="#0f766e" stroke="white" stroke-width="1.5" /><circle cx="158.46" cy="330.91" r="4" fill="#0f766e" stroke="white" stroke-width="1.5" /><circle cx="170.98" cy="312.27" r="4" fill="#0f766e" stroke="white" stroke-width="1.5" /><circle cx="178.21" cy="293.64" r="4" fill="#0f766e" stroke="white" stroke-width="1.5" /><circle cx="188.10" cy="275.00" r="4" fill="#0f766e" stroke="white" stroke-width="1.5" /><circle cx="217.65" cy="256.36" r="4" fill="#0f766e" stroke="white" stroke-width="1.5" /><circle cx="228.03" cy="237.73" r="4" fill="#0f766e" stroke="white" stroke-width="1.5" /><circle cx="253.35" cy="219.09" r="4" fill="#0f766e" stroke="white" stroke-width="1.5" /><circle cx="271.58" cy="200.45" r="4" fill="#0f766e" stroke="white" stroke-width="1.5" /><circle cx="309.76" cy="181.82" r="4" fill="#0f766e" stroke="white" stroke-width="1.5" /><circle cx="425.46" cy="163.18" r="4" fill="#0f766e" stroke="white" stroke-width="1.5" /><circle cx="429.02" cy="144.55" r="4" fill="#0f766e" stroke="white" stroke-width="1.5" /><circle cx="432.48" cy="125.91" r="4" fill="#0f766e" stroke="white" stroke-width="1.5" /><circle cx="508.59" cy="107.27" r="4" fill="#0f766e" stroke="white" stroke-width="1.5" /><circle cx="606.26" cy="88.64" r="4" fill="#0f766e" stroke="white" stroke-width="1.5" />
  <text x="90.00" y="504" text-anchor="middle" font-size="12" fill="#374151">$0.0000</text><text x="350.00" y="504" text-anchor="middle" font-size="12" fill="#374151">$0.10</text><text x="610.00" y="504" text-anchor="middle" font-size="12" fill="#374151">$0.20</text><text x="870.00" y="504" text-anchor="middle" font-size="12" fill="#374151">$0.30</text>
  <text x="78" y="484.00" text-anchor="end" font-size="12" fill="#374151">0</text><text x="78" y="428.09" text-anchor="end" font-size="12" fill="#374151">3</text><text x="78" y="372.18" text-anchor="end" font-size="12" fill="#374151">6</text><text x="78" y="316.27" text-anchor="end" font-size="12" fill="#374151">9</text><text x="78" y="260.36" text-anchor="end" font-size="12" fill="#374151">12</text><text x="78" y="204.45" text-anchor="end" font-size="12" fill="#374151">15</text><text x="78" y="148.55" text-anchor="end" font-size="12" fill="#374151">18</text><text x="78" y="92.64" text-anchor="end" font-size="12" fill="#374151">21</text><text x="78" y="74.00" text-anchor="end" font-size="12" fill="#374151">22</text>
  <text x="480.00" y="540" text-anchor="middle" font-size="14" fill="#111827">Per-problem inference budget (USD)</text>
  <text x="24" y="275.00" text-anchor="middle" font-size="14" fill="#111827" transform="rotate(-90, 24, 275.00)">Solved problems</text>
</svg>
