<svg xmlns="http://www.w3.org/2000/svg" width="900" height="560" viewBox="0 0 900 560" role="img" aria-label="Budget curve for step_by_step_experiment_16">
  <rect width="100%" height="100%" fill="#fcfcfd" />
  <text x="90" y="32" font-size="24" font-weight="700" fill="#111827">step_by_step_experiment_16</text>
  <text x="90" y="54" font-size="14" fill="#4b5563">Solved 22/22 problems | final budget ceiling $0.50</text>
  <line x1="90.00" y1="70" x2="90.00" y2="480" stroke="#e5e7eb" stroke-width="1" /><line x1="246.00" y1="70" x2="246.00" y2="480" stroke="#e5e7eb" stroke-width="1" /><line x1="402.00" y1="70" x2="402.00" y2="480" stroke="#e5e7eb" stroke-width="1" /><line x1="558.00" y1="70" x2="558.00" y2="480" stroke="#e5e7eb" stroke-width="1" /><line x1="714.00" y1="70" x2="714.00" y2="480" stroke="#e5e7eb" stroke-width="1" /><line x1="870.00" y1="70" x2="870.00" y2="480" stroke="#e5e7eb" stroke-width="1" /><line x1="90" y1="480.00" x2="870" y2="480.00" stroke="#e5e7eb" stroke-width="1" /><line x1="90" y1="424.09" x2="870" y2="424.09" stroke="#e5e7eb" stroke-width="1" /><line x1="90" y1="368.18" x2="870" y2="368.18" stroke="#e5e7eb" stroke-width="1" /><line x1="90" y1="312.27" x2="870" y2="312.27" stroke="#e5e7eb" stroke-width="1" /><line x1="90" y1="256.36" x2="870" y2="256.36" stroke="#e5e7eb" stroke-width="1" /><line x1="90" y1="200.45" x2="870" y2="200.45" stroke="#e5e7eb" stroke-width="1" /><line x1="90" y1="144.55" x2="870" y2="144.55" stroke="#e5e7eb" stroke-width="1" /><line x1="90" y1="88.64" x2="870" y2="88.64" stroke="#e5e7eb" stroke-width="1" /><line x1="90" y1="70.00" x2="870" y2="70.00" stroke="#e5e7eb" stroke-width="1" />
  <line x1="90" y1="70" x2="90" y2="480" stroke="#111827" stroke-width="1.5" />
  <line x1="90" y1="480" x2="870" y2="480" stroke="#111827" stroke-width="1.5" />
  <path d="M 90.00 480.00 L 94.58 480.00 L 94.58 461.36 L 95.69 461.36 L 95.69 442.73 L 97.33 442.73 L 97.33 424.09 L 98.80 424.09 L 98.80 405.45 L 99.67 405.45 L 99.67 386.82 L 100.15 386.82 L 100.15 368.18 L 104.58 368.18 L 104.58 349.55 L 105.39 349.55 L 105.39 330.91 L 105.54 330.91 L 105.54 312.27 L 107.30 312.27 L 107.30 293.64 L 107.82 293.64 L 107.82 275.00 L 108.02 275.00 L 108.02 256.36 L 109.96 256.36 L 109.96 237.73 L 119.25 237.73 L 119.25 219.09 L 122.04 219.09 L 122.04 200.45 L 125.84 200.45 L 125.84 181.82 L 130.09 181.82 L 130.09 163.18 L 175.29 163.18 L 175.29 144.55 L 182.04 144.55 L 182.04 125.91 L 184.52 125.91 L 184.52 107.27 L 216.62 107.27 L 216.62 88.64 L 309.08 88.64 L 309.08 70.00 L 870.00 70.00" fill="none" stroke="#0f766e" stroke-width="3" stroke-linejoin="round" stroke-linecap="round" />
  <circle cx="94.58" cy="461.36" r="4" fill="#0f766e" stroke="white" stroke-width="1.5" /><circle cx="95.69" cy="442.73" r="4" fill="#0f766e" stroke="white" stroke-width="1.5" /><circle cx="97.33" cy="424.09" r="4" fill="#0f766e" stroke="white" stroke-width="1.5" /><circle cx="98.80" cy="405.45" r="4" fill="#0f766e" stroke="white" stroke-width="1.5" /><circle cx="99.67" cy="386.82" r="4" fill="#0f766e" stroke="white" stroke-width="1.5" /><circle cx="100.15" cy="368.18" r="4" fill="#0f766e" stroke="white" stroke-width="1.5" /><circle cx="104.58" cy="349.55" r="4" fill="#0f766e" stroke="white" stroke-width="1.5" /><circle cx="105.39" cy="330.91" r="4" fill="#0f766e" stroke="white" stroke-width="1.5" /><circle cx="105.54" cy="312.27" r="4" fill="#0f766e" stroke="white" stroke-width="1.5" /><circle cx="107.30" cy="293.64" r="4" fill="#0f766e" stroke="white" stroke-width="1.5" /><circle cx="107.82" cy="275.00" r="4" fill="#0f766e" stroke="white" stroke-width="1.5" /><circle cx="108.02" cy="256.36" r="4" fill="#0f766e" stroke="white" stroke-width="1.5" /><circle cx="109.96" cy="237.73" r="4" fill="#0f766e" stroke="white" stroke-width="1.5" /><circle cx="119.25" cy="219.09" r="4" fill="#0f766e" stroke="white" stroke-width="1.5" /><circle cx="122.04" cy="200.45" r="4" fill="#0f766e" stroke="white" stroke-width="1.5" /><circle cx="125.84" cy="181.82" r="4" fill="#0f766e" stroke="white" stroke-width="1.5" /><circle cx="130.09" cy="163.18" r="4" fill="#0f766e" stroke="white" stroke-width="1.5" /><circle cx="175.29" cy="144.55" r="4" fill="#0f766e" stroke="white" stroke-width="1.5" /><circle cx="182.04" cy="125.91" r="4" fill="#0f766e" stroke="white" stroke-width="1.5" /><circle cx="184.52" cy="107.27" r="4" fill="#0f766e" stroke="white" stroke-width="1.5" /><circle cx="216.62" cy="88.64" r="4" fill="#0f766e" stroke="white" stroke-width="1.5" /><circle cx="309.08" cy="70.00" r="4" fill="#0f766e" stroke="white" stroke-width="1.5" />
  <text x="90.00" y="504" text-anchor="middle" font-size="12" fill="#374151">$0.0000</text><text x="246.00" y="504" text-anchor="middle" font-size="12" fill="#374151">$0.10</text><text x="402.00" y="504" text-anchor="middle" font-size="12" fill="#374151">$0.20</text><text x="558.00" y="504" text-anchor="middle" font-size="12" fill="#374151">$0.30</text><text x="714.00" y="504" text-anchor="middle" font-size="12" fill="#374151">$0.40</text><text x="870.00" y="504" text-anchor="middle" font-size="12" fill="#374151">$0.50</text>
  <text x="78" y="484.00" text-anchor="end" font-size="12" fill="#374151">0</text><text x="78" y="428.09" text-anchor="end" font-size="12" fill="#374151">3</text><text x="78" y="372.18" text-anchor="end" font-size="12" fill="#374151">6</text><text x="78" y="316.27" text-anchor="end" font-size="12" fill="#374151">9</text><text x="78" y="260.36" text-anchor="end" font-size="12" fill="#374151">12</text><text x="78" y="204.45" text-anchor="end" font-size="12" fill="#374151">15</text><text x="78" y="148.55" text-anchor="end" font-size="12" fill="#374151">18</text><text x="78" y="92.64" text-anchor="end" font-size="12" fill="#374151">21</text><text x="78" y="74.00" text-anchor="end" font-size="12" fill="#374151">22</text>
  <text x="480.00" y="540" text-anchor="middle" font-size="14" fill="#111827">Per-problem inference budget (USD)</text>
  <text x="24" y="275.00" text-anchor="middle" font-size="14" fill="#111827" transform="rotate(-90, 24, 275.00)">Solved problems</text>
</svg>
