<svg xmlns="http://www.w3.org/2000/svg" width="900" height="560" viewBox="0 0 900 560" role="img" aria-label="Budget curve for step_by_step_experiment_8">
  <rect width="100%" height="100%" fill="#fcfcfd" />
  <text x="90" y="32" font-size="24" font-weight="700" fill="#111827">step_by_step_experiment_8</text>
  <text x="90" y="54" font-size="14" fill="#4b5563">Solved 21/22 problems | final budget ceiling $0.26</text>
  <line x1="90.00" y1="70" x2="90.00" y2="480" stroke="#e5e7eb" stroke-width="1" /><line x1="350.00" y1="70" x2="350.00" y2="480" stroke="#e5e7eb" stroke-width="1" /><line x1="610.00" y1="70" x2="610.00" y2="480" stroke="#e5e7eb" stroke-width="1" /><line x1="870.00" y1="70" x2="870.00" y2="480" stroke="#e5e7eb" stroke-width="1" /><line x1="90" y1="480.00" x2="870" y2="480.00" stroke="#e5e7eb" stroke-width="1" /><line x1="90" y1="424.09" x2="870" y2="424.09" stroke="#e5e7eb" stroke-width="1" /><line x1="90" y1="368.18" x2="870" y2="368.18" stroke="#e5e7eb" stroke-width="1" /><line x1="90" y1="312.27" x2="870" y2="312.27" stroke="#e5e7eb" stroke-width="1" /><line x1="90" y1="256.36" x2="870" y2="256.36" stroke="#e5e7eb" stroke-width="1" /><line x1="90" y1="200.45" x2="870" y2="200.45" stroke="#e5e7eb" stroke-width="1" /><line x1="90" y1="144.55" x2="870" y2="144.55" stroke="#e5e7eb" stroke-width="1" /><line x1="90" y1="88.64" x2="870" y2="88.64" stroke="#e5e7eb" stroke-width="1" /><line x1="90" y1="70.00" x2="870" y2="70.00" stroke="#e5e7eb" stroke-width="1" />
  <line x1="90" y1="70" x2="90" y2="480" stroke="#111827" stroke-width="1.5" />
  <line x1="90" y1="480" x2="870" y2="480" stroke="#111827" stroke-width="1.5" />
  <path d="M 90.00 480.00 L 107.82 480.00 L 107.82 461.36 L 122.54 461.36 L 122.54 442.73 L 131.94 442.73 L 131.94 424.09 L 140.69 424.09 L 140.69 405.45 L 158.22 405.45 L 158.22 386.82 L 159.74 386.82 L 159.74 368.18 L 167.78 368.18 L 167.78 349.55 L 167.95 349.55 L 167.95 330.91 L 174.52 330.91 L 174.52 312.27 L 181.24 312.27 L 181.24 293.64 L 189.01 293.64 L 189.01 275.00 L 191.02 275.00 L 191.02 256.36 L 218.74 256.36 L 218.74 237.73 L 219.55 237.73 L 219.55 219.09 L 339.89 219.09 L 339.89 200.45 L 342.03 200.45 L 342.03 181.82 L 355.99 181.82 L 355.99 163.18 L 365.93 163.18 L 365.93 144.55 L 478.54 144.55 L 478.54 125.91 L 483.18 125.91 L 483.18 107.27 L 530.09 107.27 L 530.09 88.64 L 870.00 88.64" fill="none" stroke="#0f766e" stroke-width="3" stroke-linejoin="round" stroke-linecap="round" />
  <circle cx="107.82" cy="461.36" r="4" fill="#0f766e" stroke="white" stroke-width="1.5" /><circle cx="122.54" cy="442.73" r="4" fill="#0f766e" stroke="white" stroke-width="1.5" /><circle cx="131.94" cy="424.09" r="4" fill="#0f766e" stroke="white" stroke-width="1.5" /><circle cx="140.69" cy="405.45" r="4" fill="#0f766e" stroke="white" stroke-width="1.5" /><circle cx="158.22" cy="386.82" r="4" fill="#0f766e" stroke="white" stroke-width="1.5" /><circle cx="159.74" cy="368.18" r="4" fill="#0f766e" stroke="white" stroke-width="1.5" /><circle cx="167.78" cy="349.55" r="4" fill="#0f766e" stroke="white" stroke-width="1.5" /><circle cx="167.95" cy="330.91" r="4" fill="#0f766e" stroke="white" stroke-width="1.5" /><circle cx="174.52" cy="312.27" r="4" fill="#0f766e" stroke="white" stroke-width="1.5" /><circle cx="181.24" cy="293.64" r="4" fill="#0f766e" stroke="white" stroke-width="1.5" /><circle cx="189.01" cy="275.00" r="4" fill="#0f766e" stroke="white" stroke-width="1.5" /><circle cx="191.02" cy="256.36" r="4" fill="#0f766e" stroke="white" stroke-width="1.5" /><circle cx="218.74" cy="237.73" r="4" fill="#0f766e" stroke="white" stroke-width="1.5" /><circle cx="219.55" cy="219.09" r="4" fill="#0f766e" stroke="white" stroke-width="1.5" /><circle cx="339.89" cy="200.45" r="4" fill="#0f766e" stroke="white" stroke-width="1.5" /><circle cx="342.03" cy="181.82" r="4" fill="#0f766e" stroke="white" stroke-width="1.5" /><circle cx="355.99" cy="163.18" r="4" fill="#0f766e" stroke="white" stroke-width="1.5" /><circle cx="365.93" cy="144.55" r="4" fill="#0f766e" stroke="white" stroke-width="1.5" /><circle cx="478.54" cy="125.91" r="4" fill="#0f766e" stroke="white" stroke-width="1.5" /><circle cx="483.18" cy="107.27" r="4" fill="#0f766e" stroke="white" stroke-width="1.5" /><circle cx="530.09" cy="88.64" r="4" fill="#0f766e" stroke="white" stroke-width="1.5" />
  <text x="90.00" y="504" text-anchor="middle" font-size="12" fill="#374151">$0.0000</text><text x="350.00" y="504" text-anchor="middle" font-size="12" fill="#374151">$0.10</text><text x="610.00" y="504" text-anchor="middle" font-size="12" fill="#374151">$0.20</text><text x="870.00" y="504" text-anchor="middle" font-size="12" fill="#374151">$0.30</text>
  <text x="78" y="484.00" text-anchor="end" font-size="12" fill="#374151">0</text><text x="78" y="428.09" text-anchor="end" font-size="12" fill="#374151">3</text><text x="78" y="372.18" text-anchor="end" font-size="12" fill="#374151">6</text><text x="78" y="316.27" text-anchor="end" font-size="12" fill="#374151">9</text><text x="78" y="260.36" text-anchor="end" font-size="12" fill="#374151">12</text><text x="78" y="204.45" text-anchor="end" font-size="12" fill="#374151">15</text><text x="78" y="148.55" text-anchor="end" font-size="12" fill="#374151">18</text><text x="78" y="92.64" text-anchor="end" font-size="12" fill="#374151">21</text><text x="78" y="74.00" text-anchor="end" font-size="12" fill="#374151">22</text>
  <text x="480.00" y="540" text-anchor="middle" font-size="14" fill="#111827">Per-problem inference budget (USD)</text>
  <text x="24" y="275.00" text-anchor="middle" font-size="14" fill="#111827" transform="rotate(-90, 24, 275.00)">Solved problems</text>
</svg>
