<svg xmlns="http://www.w3.org/2000/svg" width="900" height="560" viewBox="0 0 900 560" role="img" aria-label="Budget curve for baseline_experiment">
  <rect width="100%" height="100%" fill="#fcfcfd" />
  <text x="90" y="32" font-size="24" font-weight="700" fill="#111827">baseline_experiment</text>
  <text x="90" y="54" font-size="14" fill="#4b5563">Solved 19/22 problems | final budget ceiling $0.24</text>
  <line x1="90.00" y1="70" x2="90.00" y2="480" stroke="#e5e7eb" stroke-width="1" /><line x1="246.00" y1="70" x2="246.00" y2="480" stroke="#e5e7eb" stroke-width="1" /><line x1="402.00" y1="70" x2="402.00" y2="480" stroke="#e5e7eb" stroke-width="1" /><line x1="558.00" y1="70" x2="558.00" y2="480" stroke="#e5e7eb" stroke-width="1" /><line x1="714.00" y1="70" x2="714.00" y2="480" stroke="#e5e7eb" stroke-width="1" /><line x1="870.00" y1="70" x2="870.00" y2="480" stroke="#e5e7eb" stroke-width="1" /><line x1="90" y1="480.00" x2="870" y2="480.00" stroke="#e5e7eb" stroke-width="1" /><line x1="90" y1="424.09" x2="870" y2="424.09" stroke="#e5e7eb" stroke-width="1" /><line x1="90" y1="368.18" x2="870" y2="368.18" stroke="#e5e7eb" stroke-width="1" /><line x1="90" y1="312.27" x2="870" y2="312.27" stroke="#e5e7eb" stroke-width="1" /><line x1="90" y1="256.36" x2="870" y2="256.36" stroke="#e5e7eb" stroke-width="1" /><line x1="90" y1="200.45" x2="870" y2="200.45" stroke="#e5e7eb" stroke-width="1" /><line x1="90" y1="144.55" x2="870" y2="144.55" stroke="#e5e7eb" stroke-width="1" /><line x1="90" y1="88.64" x2="870" y2="88.64" stroke="#e5e7eb" stroke-width="1" /><line x1="90" y1="70.00" x2="870" y2="70.00" stroke="#e5e7eb" stroke-width="1" />
  <line x1="90" y1="70" x2="90" y2="480" stroke="#111827" stroke-width="1.5" />
  <line x1="90" y1="480" x2="870" y2="480" stroke="#111827" stroke-width="1.5" />
  <path d="M 90.00 480.00 L 96.35 480.00 L 96.35 461.36 L 96.92 461.36 L 96.92 442.73 L 96.98 442.73 L 96.98 424.09 L 101.89 424.09 L 101.89 405.45 L 106.29 405.45 L 106.29 386.82 L 106.73 386.82 L 106.73 368.18 L 107.32 368.18 L 107.32 349.55 L 116.37 349.55 L 116.37 330.91 L 126.89 330.91 L 126.89 312.27 L 135.28 312.27 L 135.28 293.64 L 143.90 293.64 L 143.90 275.00 L 153.31 275.00 L 153.31 256.36 L 153.65 256.36 L 153.65 237.73 L 155.01 237.73 L 155.01 219.09 L 159.25 219.09 L 159.25 200.45 L 169.90 200.45 L 169.90 181.82 L 184.66 181.82 L 184.66 163.18 L 265.63 163.18 L 265.63 144.55 L 694.78 144.55 L 694.78 125.91 L 870.00 125.91" fill="none" stroke="#0f766e" stroke-width="3" stroke-linejoin="round" stroke-linecap="round" />
  <circle cx="96.35" cy="461.36" r="4" fill="#0f766e" stroke="white" stroke-width="1.5" /><circle cx="96.92" cy="442.73" r="4" fill="#0f766e" stroke="white" stroke-width="1.5" /><circle cx="96.98" cy="424.09" r="4" fill="#0f766e" stroke="white" stroke-width="1.5" /><circle cx="101.89" cy="405.45" r="4" fill="#0f766e" stroke="white" stroke-width="1.5" /><circle cx="106.29" cy="386.82" r="4" fill="#0f766e" stroke="white" stroke-width="1.5" /><circle cx="106.73" cy="368.18" r="4" fill="#0f766e" stroke="white" stroke-width="1.5" /><circle cx="107.32" cy="349.55" r="4" fill="#0f766e" stroke="white" stroke-width="1.5" /><circle cx="116.37" cy="330.91" r="4" fill="#0f766e" stroke="white" stroke-width="1.5" /><circle cx="126.89" cy="312.27" r="4" fill="#0f766e" stroke="white" stroke-width="1.5" /><circle cx="135.28" cy="293.64" r="4" fill="#0f766e" stroke="white" stroke-width="1.5" /><circle cx="143.90" cy="275.00" r="4" fill="#0f766e" stroke="white" stroke-width="1.5" /><circle cx="153.31" cy="256.36" r="4" fill="#0f766e" stroke="white" stroke-width="1.5" /><circle cx="153.65" cy="237.73" r="4" fill="#0f766e" stroke="white" stroke-width="1.5" /><circle cx="155.01" cy="219.09" r="4" fill="#0f766e" stroke="white" stroke-width="1.5" /><circle cx="159.25" cy="200.45" r="4" fill="#0f766e" stroke="white" stroke-width="1.5" /><circle cx="169.90" cy="181.82" r="4" fill="#0f766e" stroke="white" stroke-width="1.5" /><circle cx="184.66" cy="163.18" r="4" fill="#0f766e" stroke="white" stroke-width="1.5" /><circle cx="265.63" cy="144.55" r="4" fill="#0f766e" stroke="white" stroke-width="1.5" /><circle cx="694.78" cy="125.91" r="4" fill="#0f766e" stroke="white" stroke-width="1.5" />
  <text x="90.00" y="504" text-anchor="middle" font-size="12" fill="#374151">$0.0000</text><text x="246.00" y="504" text-anchor="middle" font-size="12" fill="#374151">$0.050</text><text x="402.00" y="504" text-anchor="middle" font-size="12" fill="#374151">$0.10</text><text x="558.00" y="504" text-anchor="middle" font-size="12" fill="#374151">$0.15</text><text x="714.00" y="504" text-anchor="middle" font-size="12" fill="#374151">$0.20</text><text x="870.00" y="504" text-anchor="middle" font-size="12" fill="#374151">$0.25</text>
  <text x="78" y="484.00" text-anchor="end" font-size="12" fill="#374151">0</text><text x="78" y="428.09" text-anchor="end" font-size="12" fill="#374151">3</text><text x="78" y="372.18" text-anchor="end" font-size="12" fill="#374151">6</text><text x="78" y="316.27" text-anchor="end" font-size="12" fill="#374151">9</text><text x="78" y="260.36" text-anchor="end" font-size="12" fill="#374151">12</text><text x="78" y="204.45" text-anchor="end" font-size="12" fill="#374151">15</text><text x="78" y="148.55" text-anchor="end" font-size="12" fill="#374151">18</text><text x="78" y="92.64" text-anchor="end" font-size="12" fill="#374151">21</text><text x="78" y="74.00" text-anchor="end" font-size="12" fill="#374151">22</text>
  <text x="480.00" y="540" text-anchor="middle" font-size="14" fill="#111827">Per-problem inference budget (USD)</text>
  <text x="24" y="275.00" text-anchor="middle" font-size="14" fill="#111827" transform="rotate(-90, 24, 275.00)">Solved problems</text>
</svg>
