<svg xmlns="http://www.w3.org/2000/svg" width="900" height="560" viewBox="0 0 900 560" role="img" aria-label="Budget curve for guided_experiment_mini_comp_8">
  <rect width="100%" height="100%" fill="#fcfcfd" />
  <text x="90" y="32" font-size="24" font-weight="700" fill="#111827">guided_experiment_mini_comp_8</text>
  <text x="90" y="54" font-size="14" fill="#4b5563">Solved 13/22 problems | final budget ceiling $0.30</text>
  <line x1="90.00" y1="70" x2="90.00" y2="480" stroke="#e5e7eb" stroke-width="1" /><line x1="285.00" y1="70" x2="285.00" y2="480" stroke="#e5e7eb" stroke-width="1" /><line x1="480.00" y1="70" x2="480.00" y2="480" stroke="#e5e7eb" stroke-width="1" /><line x1="675.00" y1="70" x2="675.00" y2="480" stroke="#e5e7eb" stroke-width="1" /><line x1="870.00" y1="70" x2="870.00" y2="480" stroke="#e5e7eb" stroke-width="1" /><line x1="90" y1="480.00" x2="870" y2="480.00" stroke="#e5e7eb" stroke-width="1" /><line x1="90" y1="424.09" x2="870" y2="424.09" stroke="#e5e7eb" stroke-width="1" /><line x1="90" y1="368.18" x2="870" y2="368.18" stroke="#e5e7eb" stroke-width="1" /><line x1="90" y1="312.27" x2="870" y2="312.27" stroke="#e5e7eb" stroke-width="1" /><line x1="90" y1="256.36" x2="870" y2="256.36" stroke="#e5e7eb" stroke-width="1" /><line x1="90" y1="200.45" x2="870" y2="200.45" stroke="#e5e7eb" stroke-width="1" /><line x1="90" y1="144.55" x2="870" y2="144.55" stroke="#e5e7eb" stroke-width="1" /><line x1="90" y1="88.64" x2="870" y2="88.64" stroke="#e5e7eb" stroke-width="1" /><line x1="90" y1="70.00" x2="870" y2="70.00" stroke="#e5e7eb" stroke-width="1" />
  <line x1="90" y1="70" x2="90" y2="480" stroke="#111827" stroke-width="1.5" />
  <line x1="90" y1="480" x2="870" y2="480" stroke="#111827" stroke-width="1.5" />
  <path d="M 90.00 480.00 L 139.31 480.00 L 139.31 461.36 L 140.40 461.36 L 140.40 442.73 L 151.51 442.73 L 151.51 424.09 L 183.35 424.09 L 183.35 405.45 L 183.43 405.45 L 183.43 386.82 L 193.67 386.82 L 193.67 368.18 L 204.25 368.18 L 204.25 349.55 L 371.60 349.55 L 371.60 330.91 L 375.58 330.91 L 375.58 312.27 L 397.21 312.27 L 397.21 293.64 L 422.19 293.64 L 422.19 275.00 L 491.30 275.00 L 491.30 256.36 L 632.62 256.36 L 632.62 237.73 L 870.00 237.73" fill="none" stroke="#0f766e" stroke-width="3" stroke-linejoin="round" stroke-linecap="round" />
  <circle cx="139.31" cy="461.36" r="4" fill="#0f766e" stroke="white" stroke-width="1.5" /><circle cx="140.40" cy="442.73" r="4" fill="#0f766e" stroke="white" stroke-width="1.5" /><circle cx="151.51" cy="424.09" r="4" fill="#0f766e" stroke="white" stroke-width="1.5" /><circle cx="183.35" cy="405.45" r="4" fill="#0f766e" stroke="white" stroke-width="1.5" /><circle cx="183.43" cy="386.82" r="4" fill="#0f766e" stroke="white" stroke-width="1.5" /><circle cx="193.67" cy="368.18" r="4" fill="#0f766e" stroke="white" stroke-width="1.5" /><circle cx="204.25" cy="349.55" r="4" fill="#0f766e" stroke="white" stroke-width="1.5" /><circle cx="371.60" cy="330.91" r="4" fill="#0f766e" stroke="white" stroke-width="1.5" /><circle cx="375.58" cy="312.27" r="4" fill="#0f766e" stroke="white" stroke-width="1.5" /><circle cx="397.21" cy="293.64" r="4" fill="#0f766e" stroke="white" stroke-width="1.5" /><circle cx="422.19" cy="275.00" r="4" fill="#0f766e" stroke="white" stroke-width="1.5" /><circle cx="491.30" cy="256.36" r="4" fill="#0f766e" stroke="white" stroke-width="1.5" /><circle cx="632.62" cy="237.73" r="4" fill="#0f766e" stroke="white" stroke-width="1.5" />
  <text x="90.00" y="504" text-anchor="middle" font-size="12" fill="#374151">$0.0000</text><text x="285.00" y="504" text-anchor="middle" font-size="12" fill="#374151">$0.10</text><text x="480.00" y="504" text-anchor="middle" font-size="12" fill="#374151">$0.20</text><text x="675.00" y="504" text-anchor="middle" font-size="12" fill="#374151">$0.30</text><text x="870.00" y="504" text-anchor="middle" font-size="12" fill="#374151">$0.40</text>
  <text x="78" y="484.00" text-anchor="end" font-size="12" fill="#374151">0</text><text x="78" y="428.09" text-anchor="end" font-size="12" fill="#374151">3</text><text x="78" y="372.18" text-anchor="end" font-size="12" fill="#374151">6</text><text x="78" y="316.27" text-anchor="end" font-size="12" fill="#374151">9</text><text x="78" y="260.36" text-anchor="end" font-size="12" fill="#374151">12</text><text x="78" y="204.45" text-anchor="end" font-size="12" fill="#374151">15</text><text x="78" y="148.55" text-anchor="end" font-size="12" fill="#374151">18</text><text x="78" y="92.64" text-anchor="end" font-size="12" fill="#374151">21</text><text x="78" y="74.00" text-anchor="end" font-size="12" fill="#374151">22</text>
  <text x="480.00" y="540" text-anchor="middle" font-size="14" fill="#111827">Per-problem inference budget (USD)</text>
  <text x="24" y="275.00" text-anchor="middle" font-size="14" fill="#111827" transform="rotate(-90, 24, 275.00)">Solved problems</text>
</svg>
