<svg xmlns="http://www.w3.org/2000/svg" width="900" height="560" viewBox="0 0 900 560" role="img" aria-label="Budget curve for guided_experiment">
  <rect width="100%" height="100%" fill="#fcfcfd" />
  <text x="90" y="32" font-size="24" font-weight="700" fill="#111827">guided_experiment</text>
  <text x="90" y="54" font-size="14" fill="#4b5563">Solved 19/22 problems | final budget ceiling $0.39</text>
  <line x1="90.00" y1="70" x2="90.00" y2="480" stroke="#e5e7eb" stroke-width="1" /><line x1="285.00" y1="70" x2="285.00" y2="480" stroke="#e5e7eb" stroke-width="1" /><line x1="480.00" y1="70" x2="480.00" y2="480" stroke="#e5e7eb" stroke-width="1" /><line x1="675.00" y1="70" x2="675.00" y2="480" stroke="#e5e7eb" stroke-width="1" /><line x1="870.00" y1="70" x2="870.00" y2="480" stroke="#e5e7eb" stroke-width="1" /><line x1="90" y1="480.00" x2="870" y2="480.00" stroke="#e5e7eb" stroke-width="1" /><line x1="90" y1="424.09" x2="870" y2="424.09" stroke="#e5e7eb" stroke-width="1" /><line x1="90" y1="368.18" x2="870" y2="368.18" stroke="#e5e7eb" stroke-width="1" /><line x1="90" y1="312.27" x2="870" y2="312.27" stroke="#e5e7eb" stroke-width="1" /><line x1="90" y1="256.36" x2="870" y2="256.36" stroke="#e5e7eb" stroke-width="1" /><line x1="90" y1="200.45" x2="870" y2="200.45" stroke="#e5e7eb" stroke-width="1" /><line x1="90" y1="144.55" x2="870" y2="144.55" stroke="#e5e7eb" stroke-width="1" /><line x1="90" y1="88.64" x2="870" y2="88.64" stroke="#e5e7eb" stroke-width="1" /><line x1="90" y1="70.00" x2="870" y2="70.00" stroke="#e5e7eb" stroke-width="1" />
  <line x1="90" y1="70" x2="90" y2="480" stroke="#111827" stroke-width="1.5" />
  <line x1="90" y1="480" x2="870" y2="480" stroke="#111827" stroke-width="1.5" />
  <path d="M 90.00 480.00 L 105.02 480.00 L 105.02 461.36 L 110.64 461.36 L 110.64 442.73 L 112.75 442.73 L 112.75 424.09 L 118.39 424.09 L 118.39 405.45 L 128.58 405.45 L 128.58 386.82 L 129.76 386.82 L 129.76 368.18 L 132.82 368.18 L 132.82 349.55 L 167.94 349.55 L 167.94 330.91 L 167.99 330.91 L 167.99 312.27 L 171.45 312.27 L 171.45 293.64 L 173.88 293.64 L 173.88 275.00 L 185.14 275.00 L 185.14 256.36 L 261.24 256.36 L 261.24 237.73 L 400.70 237.73 L 400.70 219.09 L 409.94 219.09 L 409.94 200.45 L 437.97 200.45 L 437.97 181.82 L 461.60 181.82 L 461.60 163.18 L 599.43 163.18 L 599.43 144.55 L 730.85 144.55 L 730.85 125.91 L 870.00 125.91" fill="none" stroke="#0f766e" stroke-width="3" stroke-linejoin="round" stroke-linecap="round" />
  <circle cx="105.02" cy="461.36" r="4" fill="#0f766e" stroke="white" stroke-width="1.5" /><circle cx="110.64" cy="442.73" r="4" fill="#0f766e" stroke="white" stroke-width="1.5" /><circle cx="112.75" cy="424.09" r="4" fill="#0f766e" stroke="white" stroke-width="1.5" /><circle cx="118.39" cy="405.45" r="4" fill="#0f766e" stroke="white" stroke-width="1.5" /><circle cx="128.58" cy="386.82" r="4" fill="#0f766e" stroke="white" stroke-width="1.5" /><circle cx="129.76" cy="368.18" r="4" fill="#0f766e" stroke="white" stroke-width="1.5" /><circle cx="132.82" cy="349.55" r="4" fill="#0f766e" stroke="white" stroke-width="1.5" /><circle cx="167.94" cy="330.91" r="4" fill="#0f766e" stroke="white" stroke-width="1.5" /><circle cx="167.99" cy="312.27" r="4" fill="#0f766e" stroke="white" stroke-width="1.5" /><circle cx="171.45" cy="293.64" r="4" fill="#0f766e" stroke="white" stroke-width="1.5" /><circle cx="173.88" cy="275.00" r="4" fill="#0f766e" stroke="white" stroke-width="1.5" /><circle cx="185.14" cy="256.36" r="4" fill="#0f766e" stroke="white" stroke-width="1.5" /><circle cx="261.24" cy="237.73" r="4" fill="#0f766e" stroke="white" stroke-width="1.5" /><circle cx="400.70" cy="219.09" r="4" fill="#0f766e" stroke="white" stroke-width="1.5" /><circle cx="409.94" cy="200.45" r="4" fill="#0f766e" stroke="white" stroke-width="1.5" /><circle cx="437.97" cy="181.82" r="4" fill="#0f766e" stroke="white" stroke-width="1.5" /><circle cx="461.60" cy="163.18" r="4" fill="#0f766e" stroke="white" stroke-width="1.5" /><circle cx="599.43" cy="144.55" r="4" fill="#0f766e" stroke="white" stroke-width="1.5" /><circle cx="730.85" cy="125.91" r="4" fill="#0f766e" stroke="white" stroke-width="1.5" />
  <text x="90.00" y="504" text-anchor="middle" font-size="12" fill="#374151">$0.0000</text><text x="285.00" y="504" text-anchor="middle" font-size="12" fill="#374151">$0.10</text><text x="480.00" y="504" text-anchor="middle" font-size="12" fill="#374151">$0.20</text><text x="675.00" y="504" text-anchor="middle" font-size="12" fill="#374151">$0.30</text><text x="870.00" y="504" text-anchor="middle" font-size="12" fill="#374151">$0.40</text>
  <text x="78" y="484.00" text-anchor="end" font-size="12" fill="#374151">0</text><text x="78" y="428.09" text-anchor="end" font-size="12" fill="#374151">3</text><text x="78" y="372.18" text-anchor="end" font-size="12" fill="#374151">6</text><text x="78" y="316.27" text-anchor="end" font-size="12" fill="#374151">9</text><text x="78" y="260.36" text-anchor="end" font-size="12" fill="#374151">12</text><text x="78" y="204.45" text-anchor="end" font-size="12" fill="#374151">15</text><text x="78" y="148.55" text-anchor="end" font-size="12" fill="#374151">18</text><text x="78" y="92.64" text-anchor="end" font-size="12" fill="#374151">21</text><text x="78" y="74.00" text-anchor="end" font-size="12" fill="#374151">22</text>
  <text x="480.00" y="540" text-anchor="middle" font-size="14" fill="#111827">Per-problem inference budget (USD)</text>
  <text x="24" y="275.00" text-anchor="middle" font-size="14" fill="#111827" transform="rotate(-90, 24, 275.00)">Solved problems</text>
</svg>
